<?xml version="1.0" encoding="utf-8" ?>
<svg xmlns="http://www.w3.org/2000/svg" xmlns:xlink="http://www.w3.org/1999/xlink" width="1024" height="1024">
	<path fill="#393A47" transform="scale(1.6 1.6)" d="M211.856 162.656C242.418 161.853 271.588 163.543 301.695 163.57L461.128 162.532C496.416 162.622 526.895 185.866 530.177 222.329C530.944 230.856 530.296 241.598 530.257 250.3C497.974 249.348 465.59 250.765 433.295 250.053C405.603 250.588 377.828 250.166 350.127 250.166L144.333 250.156C134.151 250.155 123.938 249.997 113.762 250.302C111.88 212.529 122.635 174.574 164.729 164.566C176.898 161.673 198.972 162.37 211.856 162.656ZM349.162 199.176C340.959 201.118 338.126 210.685 346.379 215.226C351.001 217.768 367.132 216.251 372.732 216.249L457.692 216.249C465.273 216.248 472.954 216.494 480.519 216.079C485.428 215.301 487.224 212.414 488.666 208.068C485.25 198.217 481.116 199.433 471.813 199.138C464.196 198.897 456.524 199.076 448.901 199.074L369.669 199.075C362.853 199.077 355.969 198.884 349.162 199.176ZM205.956 200.048C196.619 205.508 199.811 218.705 210.924 216.383C220.305 210.981 216.878 198.97 205.956 200.048ZM247.73 200.356C237.995 205.32 240.103 217.374 251.948 215.883C255.883 214.379 257.494 212.336 258.757 208.525C256.794 202.774 253.972 199.774 247.73 200.356ZM165.305 200.328C154.629 204.121 157.578 218.119 168.362 216.354C178.341 212.428 176.413 200.021 165.305 200.328Z"/>
	<path fill="#F13024" transform="scale(1.6 1.6)" d="M113.487 267.195C133.97 267.613 154.512 267.307 175.004 267.309L530.252 267.24L530.305 399.718C530.317 423.333 529.338 438.658 511.293 457.041C491.311 477.293 472.198 475.403 446.309 475.382L256.674 475.374C230.875 475.376 205.047 475.104 179.253 475.512C160.998 475.8 146.318 470.114 133.165 457.244C114.489 438.971 113.546 420.486 113.559 396.179L113.576 369.924C113.583 335.695 113.957 301.419 113.487 267.195ZM259.797 302.259C253.482 304.085 247.968 311.19 243.435 315.6L226.354 332.293C214.97 343.517 185.814 361.59 199.737 378.884C206.797 387.653 251.692 435.145 260.608 435.414C266.244 434.409 268.397 431.241 269.928 426.146C267.193 419.43 236.426 390.783 229.523 383.984C224.608 379.143 218.603 374.207 214.508 368.663C224.961 356 241.543 341.184 253.46 329.668C259.757 323.583 267.595 318.762 269.603 309.727C268.089 304.416 265.385 301.961 259.797 302.259ZM382.281 302.873C377.854 304.693 376.12 306.879 375.139 311.389C378.903 322.457 419.461 357.878 429.391 368.704C424.504 375.91 417.087 381.635 410.875 387.67L387.407 410.893C383.051 415.16 373.422 421.254 374.581 428.438C375.483 434.027 381.611 436.264 386.424 434.255C396.378 429.574 415.502 406.755 423.76 398.294C430.505 391.384 438.004 385.007 444.34 377.738C455.663 364.748 441.178 355.268 432.565 346.777L409.857 324.347C403.325 318.003 391.578 301.968 382.281 302.873ZM338.725 308.526C330.763 312.619 330.598 322.436 328.481 330.242L319.889 360.83C313.837 381.795 306.059 405.248 301.392 426.443C303.267 432.089 306.512 433.991 312.338 433.39C321.265 429.79 320.243 422.214 322.61 413.796L333.357 375.755C337.969 359.268 347.135 333.358 349.638 317.477C350.64 311.119 344.022 307.933 338.725 308.526Z"/>
</svg>
