<?xml version="1.0" encoding="utf-8" ?>
<svg xmlns="http://www.w3.org/2000/svg" xmlns:xlink="http://www.w3.org/1999/xlink" width="1024" height="1024">
	<path fill="#F13024" transform="scale(1.6 1.6)" d="M316.943 117.67C350.402 115.741 365.781 134.704 387.866 154.82L478.217 237.402C501.417 258.185 520.553 273.478 522.667 307.035C526.02 360.267 502.88 371.807 469.01 402.866C440.853 428.686 412.42 454.237 383.429 479.116C363.39 496.312 351.434 512.065 323.164 513.655C286.965 514.497 269.339 490.093 244.647 468.156L147.776 381.912C129.037 365.14 118.963 347.357 117.629 321.714C115.25 275.964 134.934 263.222 163.791 236.905L259.213 149.693C277.534 132.954 290.46 118.966 316.943 117.67ZM339.672 227.852C328.245 231.312 328.488 241.91 325.434 252.553L296.988 352.594C295.488 357.817 294.092 363.088 292.496 368.28C289.08 379.397 281.125 398.39 301.065 397.777C304.127 397.352 306.751 396.469 308.695 393.891C311.668 389.949 328.316 327.917 331.031 318.386L343.424 274.897C346.369 264.623 363.529 225.951 339.672 227.852ZM387.118 256.031C374.776 258.252 374.756 268.816 382.013 277.323C391.375 288.298 412.641 308.601 423.791 318.369C419.948 324.162 402.417 339.652 396.855 344.894C390.195 351.173 375.151 361.044 377.125 371.855C378.44 379.056 386.427 383.155 392.957 380.052C398.974 376.474 404.14 370.409 409.102 365.498L427.996 346.945C435.371 339.758 457.866 323.957 449.773 311.908C447.231 308.125 437.412 299.383 433.603 295.571L408.756 270.803C402.857 264.969 396.397 255.232 387.118 256.031ZM249.62 256.333C241.307 257.685 209.404 292.547 201.855 299.746C184.134 316.645 183.813 320.241 203.439 338.935C210.325 345.495 241.958 379.426 248.991 381.375C256.673 381.726 262.491 376.789 262.711 368.89C262.931 360.977 252.382 354.093 247.207 349.167L227.699 330.243C223.837 326.479 219.759 322.782 216.222 318.713C220.38 313.583 225.286 309.104 230.057 304.556L248.687 286.819C253.674 282.027 263.436 274.789 262.756 266.91C262.166 260.078 256.322 255.6 249.62 256.333Z"/>
</svg>
